<svg width="81" height="85" viewBox="0 0 81 85" fill="none" xmlns="http://www.w3.org/2000/svg">
<path d="M59.5 2H18.5V40H2V49.5H7V54.5H11.5V59.5H16.5V64H22V68.5H26V73.5H31V78H35.5V83.5H45.5V78H50V73.5H54.5V68.5H59.5V64H65V59.5H69V54.5H73.5V49.5H79V40H59.5V2Z" fill="#FBCE04" stroke="black" stroke-width="3"/>
<path d="M50 11.5H31H30V48.5H29H20V51H25V55.5H30V61H35V66H41.5H45.5V61H50.5V55.5H55.75V48.5H50.5L50 11.5Z" fill="#F5F537"/>
<path d="M31 11.5H50M50 11.5L50.5 48.5H55.75M50 11.5H30V48.5H29H20V51H25V55.5H30V61H35V66H41.5M62.5 48.5H55.75M55.75 48.5V55.5H50.5V61H45.5V66H41.5M41.5 66V71.5H38.5V67" stroke="#F5F537" stroke-width="3"/>
</svg>
