<svg width="700" height="397" viewBox="0 0 700 397" fill="none" xmlns="http://www.w3.org/2000/svg">
<path d="M625.021 121.39C611.121 134.69 588.921 151.89 574.921 160.69C559.021 170.69 537.321 183.79 514.721 195.99C511.621 197.69 510.421 201.69 512.121 204.69C521.021 220.19 524.421 238.59 527.821 254.99C529.521 263.09 530.621 271.39 531.221 279.69C531.221 279.69 533.621 318.29 535.821 351.59C539.421 355.29 544.521 357.19 551.321 351.89C566.221 340.19 570.321 347.99 570.321 347.99C570.321 347.99 572.421 349.09 574.021 346.89C575.721 344.69 581.121 343.39 584.621 347.99C588.121 352.69 596.521 348.19 596.521 348.19C596.521 348.19 600.621 347.59 603.421 355.69C604.921 359.99 609.921 362.49 614.221 363.79C618.821 365.29 622.121 369.39 622.621 374.29C622.721 375.39 622.821 376.49 622.921 377.59C623.221 382.39 623.521 387.69 621.721 392.19C621.021 394.09 619.821 395.59 617.921 396.49C616.921 396.99 616.121 396.89 615.021 396.89C613.921 396.89 612.821 396.89 611.621 396.89C603.921 396.99 596.321 396.89 588.621 396.89C584.321 396.89 580.021 396.89 575.821 396.89C570.821 396.89 565.821 396.89 560.821 396.89C555.221 396.89 549.521 396.89 543.921 396.89C537.721 396.89 531.421 396.89 525.221 396.89C518.521 396.89 511.721 396.89 505.021 396.89C497.821 396.89 490.621 396.89 483.421 396.89C475.821 396.89 468.321 396.89 460.721 396.89C452.821 396.89 444.921 396.89 437.121 396.89C429.021 396.89 420.921 396.89 412.721 396.89C404.421 396.89 396.121 396.89 387.821 396.89C379.421 396.89 371.021 396.89 362.621 396.89C354.221 396.89 345.721 396.89 337.321 396.89C328.921 396.89 320.521 396.89 312.121 396.89C303.821 396.89 295.521 396.89 287.221 396.89C279.121 396.89 270.921 396.89 262.821 396.89C254.921 396.89 247.021 396.89 239.121 396.89C231.521 396.89 223.921 396.89 216.321 396.89C209.121 396.89 201.821 396.89 194.621 396.89C187.821 396.89 181.021 396.89 174.221 396.89C167.921 396.89 161.621 396.89 155.321 396.89C149.621 396.89 143.921 396.89 138.121 396.89C133.021 396.89 127.921 396.89 122.921 396.89C118.521 396.89 114.221 396.89 109.821 396.89C106.221 396.89 102.621 396.89 99.0206 396.89C94.2206 396.89 89.4206 396.89 84.6206 396.99C81.9206 397.09 78.8206 396.79 77.0206 394.59C75.7206 392.89 75.0206 390.79 74.7206 388.69C73.9206 383.89 74.3206 378.89 74.8206 374.09C75.3206 369.29 78.6206 365.09 83.2206 363.59C87.5206 362.19 92.5206 359.79 94.0206 355.49C96.8206 347.49 100.921 347.99 100.921 347.99C100.921 347.99 109.321 352.49 112.821 347.79C116.321 343.09 121.821 344.39 123.421 346.69C125.121 348.89 127.121 347.79 127.121 347.79C127.121 347.79 131.221 339.99 146.121 351.69C151.321 355.79 155.521 355.59 158.821 353.69C165.521 331.79 166.721 281.09 167.721 271.39C170.021 249.19 176.621 223.89 186.321 204.99C186.321 204.99 186.321 204.99 186.321 204.89C188.121 201.39 186.821 196.99 183.321 195.09C161.121 182.99 139.821 170.19 124.221 160.39C110.321 151.59 88.0206 134.39 74.1206 121.09C45.1206 93.3897 -11.0794 13.9897 1.92059 0.189663C1.92059 0.189663 124.121 -8.21033 242.521 137.19C248.121 144.09 257.921 146.19 265.921 142.29C268.721 140.89 271.621 139.59 274.421 138.29C293.921 129.89 314.921 124.89 336.121 123.49C360.421 121.89 384.921 124.79 408.121 132.39C416.521 135.19 424.821 138.59 432.721 142.49C440.721 146.49 450.521 144.39 456.221 137.49C574.721 -8.31032 697.121 0.0896718 697.121 0.0896718C710.321 14.2897 654.021 93.6897 625.021 121.39Z" fill="black"/>
<path d="M95.2206 364.69C97.2206 351.39 102.221 355.49 105.221 359.59C106.421 361.29 109.021 361.19 110.121 359.39C117.921 346.69 120.821 353.19 121.621 356.19C121.821 356.99 122.421 357.59 123.221 357.89C124.221 358.19 125.221 357.89 125.921 357.09C136.921 342.89 138.621 353.39 138.821 359.69C138.821 361.19 140.521 361.99 141.821 361.19C153.921 352.89 151.021 375.09 151.021 375.09C157.121 376.19 160.721 382.89 162.521 387.39C163.321 389.39 161.821 391.49 159.721 391.49H83.5206C72.8206 369.69 95.2206 364.69 95.2206 364.69ZM601.521 364.69C599.521 351.39 594.521 355.49 591.521 359.59C590.321 361.29 587.721 361.19 586.621 359.39C578.821 346.69 575.921 353.19 575.121 356.19C574.921 356.99 574.321 357.59 573.521 357.89C572.521 358.19 571.521 357.89 570.821 357.09C559.821 342.89 558.121 353.39 557.921 359.69C557.921 361.19 556.221 361.99 554.921 361.19C542.821 352.89 545.721 375.09 545.721 375.09C539.621 376.19 536.021 382.89 534.221 387.39C533.421 389.39 534.921 391.49 537.021 391.49H613.221C623.921 369.69 601.521 364.69 601.521 364.69ZM639.821 25.3896C635.721 53.1896 626.521 111.39 602.521 131.59C588.221 143.59 569.821 155.49 556.321 163.99C548.821 168.69 541.721 174.19 534.321 178.99C530.321 181.59 526.121 183.99 521.821 186.09C518.821 187.49 512.821 191.29 509.521 190.39C508.221 190.09 507.121 189.19 506.021 188.39C504.921 187.59 503.721 186.79 502.421 186.59C500.121 186.19 499.221 187.59 498.721 189.49C498.121 191.89 498.521 194.49 499.721 196.69C513.321 221.09 522.421 248.69 524.721 276.49C525.621 287.39 524.321 298.19 524.921 308.99C525.521 319.29 526.421 329.59 528.821 339.59C529.421 342.19 530.121 344.79 530.921 347.29C531.321 348.59 533.121 354.59 530.321 355.29C529.821 355.39 529.321 355.29 528.921 355.19C515.821 351.69 504.221 347.89 491.021 353.79C482.121 357.79 477.821 364.39 472.721 372.49C470.821 375.59 469.121 378.79 467.621 382.09C466.921 383.79 466.321 385.49 465.621 387.19C465.521 387.59 464.821 391.69 464.821 391.69C464.821 391.69 438.721 391.79 433.221 391.79C422.421 391.69 411.621 391.69 400.821 391.69C394.921 391.69 389.021 391.59 383.121 391.59L383.921 384.39C384.121 384.39 384.321 384.39 384.621 384.39C392.621 384.39 401.521 381.39 409.821 371.99C410.621 371.09 410.521 369.69 409.621 368.79C408.721 367.99 407.321 368.09 406.421 368.99C387.521 390.59 365.321 373.99 363.021 372.19C361.321 370.29 349.721 358.59 325.821 375.69C319.421 380.29 312.921 382.09 306.721 380.99C295.621 378.99 288.421 368.59 288.321 368.49C287.621 367.49 286.221 367.19 285.221 367.89C284.221 368.59 283.921 369.99 284.621 370.99C284.921 371.49 292.921 383.09 305.821 385.39C307.321 385.69 308.821 385.79 310.321 385.79C311.121 385.79 311.821 385.79 312.621 385.69L312.821 391.29C305.921 391.29 299.021 391.19 292.021 391.09C277.321 390.89 262.721 390.59 248.021 390.39C242.421 390.29 236.721 390.09 231.221 390.09C231.521 378.59 223.421 366.19 214.921 359.19C204.521 350.59 189.421 349.69 176.821 352.79C173.921 353.49 166.021 358.19 163.821 354.79C162.321 352.39 167.121 347.89 167.821 345.69C172.321 331.49 173.121 315.59 174.621 300.89C176.621 281.19 175.821 261.59 179.321 242.09C180.821 233.79 183.121 225.49 186.521 217.79C188.221 213.89 190.221 210.09 192.521 206.49C194.421 203.49 196.821 200.89 198.621 197.79C200.021 195.59 204.221 186.79 198.821 186.49C194.621 186.29 193.621 189.99 186.421 189.09C177.621 187.99 168.921 182.39 161.721 177.59C154.521 172.89 147.821 167.59 140.521 162.99C127.021 154.49 104.021 140.49 90.9206 127.19C69.9206 105.79 55.3206 30.2896 59.1206 19.1896C59.1206 19.1896 128.621 17.3896 239.321 148.39C244.921 154.99 254.321 156.99 262.221 153.19C264.821 151.89 267.521 150.69 270.221 149.49C289.121 141.39 319.421 135.39 339.921 134.09C363.421 132.49 387.121 135.39 409.521 142.79C417.721 145.49 430.121 150.99 437.821 154.79C445.621 158.69 456.221 152.19 461.621 145.49C539.821 47.9896 607.221 23.9896 632.221 18.6896C637.121 17.3896 640.521 20.4896 639.821 25.3896ZM279.821 298.39C279.821 279.09 264.121 263.39 244.821 263.39C225.521 263.39 209.821 279.09 209.821 298.39C209.821 317.69 225.521 333.39 244.821 333.39C264.121 333.29 279.821 317.69 279.821 298.39ZM356.021 318.79H347.821H339.621C335.621 318.79 333.221 323.19 335.321 326.49L339.121 332.59C343.421 338.39 352.121 338.39 356.421 332.59L360.221 326.49C362.421 323.19 360.021 318.79 356.021 318.79ZM487.321 298.39C487.321 279.09 471.621 263.39 452.321 263.39C433.021 263.39 417.321 279.09 417.321 298.39C417.321 317.69 433.021 333.39 452.321 333.39C471.721 333.29 487.321 317.69 487.321 298.39Z" fill="#FCD20B"/>
<path d="M171.321 391.29C171.321 391.29 159.221 381.59 160.521 367.99C160.521 367.99 208.021 335.09 224.021 391.39L171.321 391.29ZM524.621 391.29C524.621 391.29 536.721 381.59 535.421 367.99C535.421 367.99 487.921 335.09 471.921 391.39L524.621 391.29ZM379.221 392.29L379.421 387.39C379.521 385.59 378.321 384.09 376.621 383.69C372.621 382.89 365.621 380.79 361.921 375.99C356.521 369.09 341.621 368.19 333.921 376.39C329.221 381.49 323.821 383.09 320.321 383.59C318.221 383.89 316.721 385.69 316.721 387.79V391.99L379.221 392.29Z" fill="#ED1C24"/>
<path d="M269.42 286.89C269.42 295.79 262.22 302.89 253.42 302.89C244.52 302.89 237.42 295.69 237.42 286.89C237.42 277.99 244.62 270.89 253.42 270.89C262.22 270.89 269.42 278.09 269.42 286.89ZM442.82 270.89C433.92 270.89 426.82 278.09 426.82 286.89C426.82 295.79 434.02 302.89 442.82 302.89C451.72 302.89 458.82 295.69 458.82 286.89C458.82 278.09 451.62 270.89 442.82 270.89Z" fill="white"/>
<path d="M267.221 306.39C267.221 306.79 267.321 307.29 267.321 307.69C267.321 319.09 258.121 328.29 246.721 328.29C236.221 328.29 227.621 320.49 226.321 310.39C231.721 311.89 238.421 312.59 245.521 312.09C254.021 311.49 261.721 309.39 267.221 306.39ZM428.921 306.39C428.921 306.79 428.821 307.29 428.821 307.69C428.821 319.09 438.021 328.29 449.421 328.29C459.921 328.29 468.521 320.49 469.821 310.39C464.421 311.89 457.721 312.59 450.621 312.09C442.121 311.49 434.421 309.39 428.921 306.39Z" fill="#765241"/>
</svg>
