<svg id="visual" viewBox="0 0 900 113" width="900" height="113" xmlns="http://www.w3.org/2000/svg" xmlns:xlink="http://www.w3.org/1999/xlink" version="1.1"><rect x="0" y="0" width="900" height="113" fill="#fff"></rect><path d="M0 60L5.5 65.8C11 71.7 22 83.3 33.2 89C44.3 94.7 55.7 94.3 66.8 87.2C78 80 89 66 100 65.2C111 64.3 122 76.7 133.2 80.2C144.3 83.7 155.7 78.3 166.8 77.5C178 76.7 189 80.3 200 79.7C211 79 222 74 233.2 70.3C244.3 66.7 255.7 64.3 266.8 63.2C278 62 289 62 300 64C311 66 322 70 333.2 68.2C344.3 66.3 355.7 58.7 366.8 59.8C378 61 389 71 400 78C411 85 422 89 433.2 83.8C444.3 78.7 455.7 64.3 466.8 63.8C478 63.3 489 76.7 500 79.3C511 82 522 74 533.2 70.7C544.3 67.3 555.7 68.7 566.8 68.8C578 69 589 68 600 70C611 72 622 77 633.2 80.3C644.3 83.7 655.7 85.3 666.8 80.2C678 75 689 63 700 60.8C711 58.7 722 66.3 733.2 69C744.3 71.7 755.7 69.3 766.8 66C778 62.7 789 58.3 800 62.2C811 66 822 78 833.2 77.2C844.3 76.3 855.7 62.7 866.8 60.2C878 57.7 889 66.3 894.5 70.7L900 75L900 114L894.5 114C889 114 878 114 866.8 114C855.7 114 844.3 114 833.2 114C822 114 811 114 800 114C789 114 778 114 766.8 114C755.7 114 744.3 114 733.2 114C722 114 711 114 700 114C689 114 678 114 666.8 114C655.7 114 644.3 114 633.2 114C622 114 611 114 600 114C589 114 578 114 566.8 114C555.7 114 544.3 114 533.2 114C522 114 511 114 500 114C489 114 478 114 466.8 114C455.7 114 444.3 114 433.2 114C422 114 411 114 400 114C389 114 378 114 366.8 114C355.7 114 344.3 114 333.2 114C322 114 311 114 300 114C289 114 278 114 266.8 114C255.7 114 244.3 114 233.2 114C222 114 211 114 200 114C189 114 178 114 166.8 114C155.7 114 144.3 114 133.2 114C122 114 111 114 100 114C89 114 78 114 66.8 114C55.7 114 44.3 114 33.2 114C22 114 11 114 5.5 114L0 114Z" fill="#0f0f0f" stroke-linecap="round" stroke-linejoin="miter"></path></svg>