<svg id="visual" viewBox="0 0 1890 300" width="1890" height="300" xmlns="http://www.w3.org/2000/svg" xmlns:xlink="http://www.w3.org/1999/xlink" version="1.1"><rect x="0" y="0" width="1890" height="300" fill="#fffaeb"></rect><path d="M0 86L28.7 93.3C57.3 100.7 114.7 115.3 172 115.5C229.3 115.7 286.7 101.3 343.8 104C401 106.7 458 126.3 515.2 136.8C572.3 147.3 629.7 148.7 687 151.5C744.3 154.3 801.7 158.7 859 150.8C916.3 143 973.7 123 1031 113.3C1088.3 103.7 1145.7 104.3 1203 103.8C1260.3 103.3 1317.7 101.7 1374.8 106C1432 110.3 1489 120.7 1546.2 125.3C1603.3 130 1660.7 129 1718 120.7C1775.3 112.3 1832.7 96.7 1861.3 88.8L1890 81L1890 301L1861.3 301C1832.7 301 1775.3 301 1718 301C1660.7 301 1603.3 301 1546.2 301C1489 301 1432 301 1374.8 301C1317.7 301 1260.3 301 1203 301C1145.7 301 1088.3 301 1031 301C973.7 301 916.3 301 859 301C801.7 301 744.3 301 687 301C629.7 301 572.3 301 515.2 301C458 301 401 301 343.8 301C286.7 301 229.3 301 172 301C114.7 301 57.3 301 28.7 301L0 301Z" fill="#ff7575"></path><path d="M0 180L28.7 171.7C57.3 163.3 114.7 146.7 172 144.2C229.3 141.7 286.7 153.3 343.8 151.5C401 149.7 458 134.3 515.2 131.8C572.3 129.3 629.7 139.7 687 147.8C744.3 156 801.7 162 859 156.2C916.3 150.3 973.7 132.7 1031 130C1088.3 127.3 1145.7 139.7 1203 152.5C1260.3 165.3 1317.7 178.7 1374.8 172.7C1432 166.7 1489 141.3 1546.2 136.8C1603.3 132.3 1660.7 148.7 1718 157.7C1775.3 166.7 1832.7 168.3 1861.3 169.2L1890 170L1890 301L1861.3 301C1832.7 301 1775.3 301 1718 301C1660.7 301 1603.3 301 1546.2 301C1489 301 1432 301 1374.8 301C1317.7 301 1260.3 301 1203 301C1145.7 301 1088.3 301 1031 301C973.7 301 916.3 301 859 301C801.7 301 744.3 301 687 301C629.7 301 572.3 301 515.2 301C458 301 401 301 343.8 301C286.7 301 229.3 301 172 301C114.7 301 57.3 301 28.7 301L0 301Z" fill="#ed6a6a"></path><path d="M0 191L28.7 186C57.3 181 114.7 171 172 173.7C229.3 176.3 286.7 191.7 343.8 192.8C401 194 458 181 515.2 176.8C572.3 172.7 629.7 177.3 687 181.8C744.3 186.3 801.7 190.7 859 194.8C916.3 199 973.7 203 1031 205.5C1088.3 208 1145.7 209 1203 203C1260.3 197 1317.7 184 1374.8 175.3C1432 166.7 1489 162.3 1546.2 168C1603.3 173.7 1660.7 189.3 1718 193.3C1775.3 197.3 1832.7 189.7 1861.3 185.8L1890 182L1890 301L1861.3 301C1832.7 301 1775.3 301 1718 301C1660.7 301 1603.3 301 1546.2 301C1489 301 1432 301 1374.8 301C1317.7 301 1260.3 301 1203 301C1145.7 301 1088.3 301 1031 301C973.7 301 916.3 301 859 301C801.7 301 744.3 301 687 301C629.7 301 572.3 301 515.2 301C458 301 401 301 343.8 301C286.7 301 229.3 301 172 301C114.7 301 57.3 301 28.7 301L0 301Z" fill="#dc5f5f"></path><path d="M0 230L28.7 232.3C57.3 234.7 114.7 239.3 172 236.2C229.3 233 286.7 222 343.8 218.7C401 215.3 458 219.7 515.2 219.5C572.3 219.3 629.7 214.7 687 216.7C744.3 218.7 801.7 227.3 859 231.8C916.3 236.3 973.7 236.7 1031 230.7C1088.3 224.7 1145.7 212.3 1203 209.2C1260.3 206 1317.7 212 1374.8 215C1432 218 1489 218 1546.2 218.2C1603.3 218.3 1660.7 218.7 1718 214.8C1775.3 211 1832.7 203 1861.3 199L1890 195L1890 301L1861.3 301C1832.7 301 1775.3 301 1718 301C1660.7 301 1603.3 301 1546.2 301C1489 301 1432 301 1374.8 301C1317.7 301 1260.3 301 1203 301C1145.7 301 1088.3 301 1031 301C973.7 301 916.3 301 859 301C801.7 301 744.3 301 687 301C629.7 301 572.3 301 515.2 301C458 301 401 301 343.8 301C286.7 301 229.3 301 172 301C114.7 301 57.3 301 28.7 301L0 301Z" fill="#cb5454"></path><path d="M0 251L28.7 248C57.3 245 114.7 239 172 240.5C229.3 242 286.7 251 343.8 251.3C401 251.7 458 243.3 515.2 244.7C572.3 246 629.7 257 687 262.2C744.3 267.3 801.7 266.7 859 263.5C916.3 260.3 973.7 254.7 1031 253.7C1088.3 252.7 1145.7 256.3 1203 257.7C1260.3 259 1317.7 258 1374.8 257.7C1432 257.3 1489 257.7 1546.2 256.5C1603.3 255.3 1660.7 252.7 1718 251.3C1775.3 250 1832.7 250 1861.3 250L1890 250L1890 301L1861.3 301C1832.7 301 1775.3 301 1718 301C1660.7 301 1603.3 301 1546.2 301C1489 301 1432 301 1374.8 301C1317.7 301 1260.3 301 1203 301C1145.7 301 1088.3 301 1031 301C973.7 301 916.3 301 859 301C801.7 301 744.3 301 687 301C629.7 301 572.3 301 515.2 301C458 301 401 301 343.8 301C286.7 301 229.3 301 172 301C114.7 301 57.3 301 28.7 301L0 301Z" fill="#ba4a4a"></path></svg>