<svg id="visual" viewBox="0 0 630 300" width="630" height="300" xmlns="http://www.w3.org/2000/svg" xmlns:xlink="http://www.w3.org/1999/xlink" version="1.1"><rect x="0" y="0" width="630" height="300" fill="#fffaeb"></rect><path d="M0 86L9.5 93.3C19 100.7 38 115.3 57.2 115.5C76.3 115.7 95.7 101.3 114.8 104C134 106.7 153 126.3 172 136.8C191 147.3 210 148.7 229 151.5C248 154.3 267 158.7 286.2 150.8C305.3 143 324.7 123 343.8 113.3C363 103.7 382 104.3 401 103.8C420 103.3 439 101.7 458 106C477 110.3 496 120.7 515.2 125.3C534.3 130 553.7 129 572.8 120.7C592 112.3 611 96.7 620.5 88.8L630 81L630 301L620.5 301C611 301 592 301 572.8 301C553.7 301 534.3 301 515.2 301C496 301 477 301 458 301C439 301 420 301 401 301C382 301 363 301 343.8 301C324.7 301 305.3 301 286.2 301C267 301 248 301 229 301C210 301 191 301 172 301C153 301 134 301 114.8 301C95.7 301 76.3 301 57.2 301C38 301 19 301 9.5 301L0 301Z" fill="#ff7575"></path><path d="M0 180L9.5 171.7C19 163.3 38 146.7 57.2 144.2C76.3 141.7 95.7 153.3 114.8 151.5C134 149.7 153 134.3 172 131.8C191 129.3 210 139.7 229 147.8C248 156 267 162 286.2 156.2C305.3 150.3 324.7 132.7 343.8 130C363 127.3 382 139.7 401 152.5C420 165.3 439 178.7 458 172.7C477 166.7 496 141.3 515.2 136.8C534.3 132.3 553.7 148.7 572.8 157.7C592 166.7 611 168.3 620.5 169.2L630 170L630 301L620.5 301C611 301 592 301 572.8 301C553.7 301 534.3 301 515.2 301C496 301 477 301 458 301C439 301 420 301 401 301C382 301 363 301 343.8 301C324.7 301 305.3 301 286.2 301C267 301 248 301 229 301C210 301 191 301 172 301C153 301 134 301 114.8 301C95.7 301 76.3 301 57.2 301C38 301 19 301 9.5 301L0 301Z" fill="#ed6a6a"></path><path d="M0 191L9.5 186C19 181 38 171 57.2 173.7C76.3 176.3 95.7 191.7 114.8 192.8C134 194 153 181 172 176.8C191 172.7 210 177.3 229 181.8C248 186.3 267 190.7 286.2 194.8C305.3 199 324.7 203 343.8 205.5C363 208 382 209 401 203C420 197 439 184 458 175.3C477 166.7 496 162.3 515.2 168C534.3 173.7 553.7 189.3 572.8 193.3C592 197.3 611 189.7 620.5 185.8L630 182L630 301L620.5 301C611 301 592 301 572.8 301C553.7 301 534.3 301 515.2 301C496 301 477 301 458 301C439 301 420 301 401 301C382 301 363 301 343.8 301C324.7 301 305.3 301 286.2 301C267 301 248 301 229 301C210 301 191 301 172 301C153 301 134 301 114.8 301C95.7 301 76.3 301 57.2 301C38 301 19 301 9.5 301L0 301Z" fill="#dc5f5f"></path><path d="M0 230L9.5 232.3C19 234.7 38 239.3 57.2 236.2C76.3 233 95.7 222 114.8 218.7C134 215.3 153 219.7 172 219.5C191 219.3 210 214.7 229 216.7C248 218.7 267 227.3 286.2 231.8C305.3 236.3 324.7 236.7 343.8 230.7C363 224.7 382 212.3 401 209.2C420 206 439 212 458 215C477 218 496 218 515.2 218.2C534.3 218.3 553.7 218.7 572.8 214.8C592 211 611 203 620.5 199L630 195L630 301L620.5 301C611 301 592 301 572.8 301C553.7 301 534.3 301 515.2 301C496 301 477 301 458 301C439 301 420 301 401 301C382 301 363 301 343.8 301C324.7 301 305.3 301 286.2 301C267 301 248 301 229 301C210 301 191 301 172 301C153 301 134 301 114.8 301C95.7 301 76.3 301 57.2 301C38 301 19 301 9.5 301L0 301Z" fill="#cb5454"></path><path d="M0 251L9.5 248C19 245 38 239 57.2 240.5C76.3 242 95.7 251 114.8 251.3C134 251.7 153 243.3 172 244.7C191 246 210 257 229 262.2C248 267.3 267 266.7 286.2 263.5C305.3 260.3 324.7 254.7 343.8 253.7C363 252.7 382 256.3 401 257.7C420 259 439 258 458 257.7C477 257.3 496 257.7 515.2 256.5C534.3 255.3 553.7 252.7 572.8 251.3C592 250 611 250 620.5 250L630 250L630 301L620.5 301C611 301 592 301 572.8 301C553.7 301 534.3 301 515.2 301C496 301 477 301 458 301C439 301 420 301 401 301C382 301 363 301 343.8 301C324.7 301 305.3 301 286.2 301C267 301 248 301 229 301C210 301 191 301 172 301C153 301 134 301 114.8 301C95.7 301 76.3 301 57.2 301C38 301 19 301 9.5 301L0 301Z" fill="#ba4a4a"></path></svg>