<svg id="visual" viewBox="0 0 630 150" width="630" height="150" xmlns="http://www.w3.org/2000/svg" xmlns:xlink="http://www.w3.org/1999/xlink" version="1.1"><rect x="0" y="0" width="630" height="150" fill="#fffaeb"></rect><path d="M0 42L9.5 45.8C19 49.7 38 57.3 57.2 57.5C76.3 57.7 95.7 50.3 114.8 51.5C134 52.7 153 62.3 172 67.5C191 72.7 210 73.3 229 74.8C248 76.3 267 78.7 286.2 74.8C305.3 71 324.7 61 343.8 56.2C363 51.3 382 51.7 401 51.5C420 51.3 439 50.7 458 52.8C477 55 496 60 515.2 62.2C534.3 64.3 553.7 63.7 572.8 59.5C592 55.3 611 47.7 620.5 43.8L630 40L630 151L620.5 151C611 151 592 151 572.8 151C553.7 151 534.3 151 515.2 151C496 151 477 151 458 151C439 151 420 151 401 151C382 151 363 151 343.8 151C324.7 151 305.3 151 286.2 151C267 151 248 151 229 151C210 151 191 151 172 151C153 151 134 151 114.8 151C95.7 151 76.3 151 57.2 151C38 151 19 151 9.5 151L0 151Z" fill="#ff7575"></path><path d="M0 89L9.5 85C19 81 38 73 57.2 71.8C76.3 70.7 95.7 76.3 114.8 75.3C134 74.3 153 66.7 172 65.3C191 64 210 69 229 73C248 77 267 80 286.2 77.2C305.3 74.3 324.7 65.7 343.8 64.3C363 63 382 69 401 75.3C420 81.7 439 88.3 458 85.5C477 82.7 496 70.3 515.2 68.2C534.3 66 553.7 74 572.8 78.5C592 83 611 84 620.5 84.5L630 85L630 151L620.5 151C611 151 592 151 572.8 151C553.7 151 534.3 151 515.2 151C496 151 477 151 458 151C439 151 420 151 401 151C382 151 363 151 343.8 151C324.7 151 305.3 151 286.2 151C267 151 248 151 229 151C210 151 191 151 172 151C153 151 134 151 114.8 151C95.7 151 76.3 151 57.2 151C38 151 19 151 9.5 151L0 151Z" fill="#ed6a6a"></path><path d="M0 95L9.5 92.5C19 90 38 85 57.2 86.3C76.3 87.7 95.7 95.3 114.8 95.8C134 96.3 153 89.7 172 87.7C191 85.7 210 88.3 229 90.7C248 93 267 95 286.2 97C305.3 99 324.7 101 343.8 102.2C363 103.3 382 103.7 401 100.7C420 97.7 439 91.3 458 87C477 82.7 496 80.3 515.2 83.2C534.3 86 553.7 94 572.8 96.2C592 98.3 611 94.7 620.5 92.8L630 91L630 151L620.5 151C611 151 592 151 572.8 151C553.7 151 534.3 151 515.2 151C496 151 477 151 458 151C439 151 420 151 401 151C382 151 363 151 343.8 151C324.7 151 305.3 151 286.2 151C267 151 248 151 229 151C210 151 191 151 172 151C153 151 134 151 114.8 151C95.7 151 76.3 151 57.2 151C38 151 19 151 9.5 151L0 151Z" fill="#dc5f5f"></path><path d="M0 114L9.5 115.2C19 116.3 38 118.7 57.2 117.2C76.3 115.7 95.7 110.3 114.8 108.8C134 107.3 153 109.7 172 109.7C191 109.7 210 107.3 229 108.3C248 109.3 267 113.7 286.2 115.8C305.3 118 324.7 118 343.8 115C363 112 382 106 401 104.5C420 103 439 106 458 107.5C477 109 496 109 515.2 109C534.3 109 553.7 109 572.8 107C592 105 611 101 620.5 99L630 97L630 151L620.5 151C611 151 592 151 572.8 151C553.7 151 534.3 151 515.2 151C496 151 477 151 458 151C439 151 420 151 401 151C382 151 363 151 343.8 151C324.7 151 305.3 151 286.2 151C267 151 248 151 229 151C210 151 191 151 172 151C153 151 134 151 114.8 151C95.7 151 76.3 151 57.2 151C38 151 19 151 9.5 151L0 151Z" fill="#cb5454"></path><path d="M0 125L9.5 123.5C19 122 38 119 57.2 119.7C76.3 120.3 95.7 124.7 114.8 124.8C134 125 153 121 172 121.8C191 122.7 210 128.3 229 130.8C248 133.3 267 132.7 286.2 131C305.3 129.3 324.7 126.7 343.8 126.3C363 126 382 128 401 128.7C420 129.3 439 128.7 458 128.5C477 128.3 496 128.7 515.2 128C534.3 127.3 553.7 125.7 572.8 125C592 124.3 611 124.7 620.5 124.8L630 125L630 151L620.5 151C611 151 592 151 572.8 151C553.7 151 534.3 151 515.2 151C496 151 477 151 458 151C439 151 420 151 401 151C382 151 363 151 343.8 151C324.7 151 305.3 151 286.2 151C267 151 248 151 229 151C210 151 191 151 172 151C153 151 134 151 114.8 151C95.7 151 76.3 151 57.2 151C38 151 19 151 9.5 151L0 151Z" fill="#ba4a4a"></path></svg>