<svg id="visual" viewBox="0 0 1920 300" width="1920" height="300" xmlns="http://www.w3.org/2000/svg" xmlns:xlink="http://www.w3.org/1999/xlink" version="1.1"><rect x="0" y="0" width="1920" height="300" fill="#161615"></rect><path d="M0 106L35.5 107.7C71 109.3 142 112.7 213.2 114.7C284.3 116.7 355.7 117.3 426.8 111.5C498 105.7 569 93.3 640 94.7C711 96 782 111 853.2 113.3C924.3 115.7 995.7 105.3 1066.8 99.7C1138 94 1209 93 1280 92C1351 91 1422 90 1493.2 91.2C1564.3 92.3 1635.7 95.7 1706.8 99.8C1778 104 1849 109 1884.5 111.5L1920 114L1920 301L1884.5 301C1849 301 1778 301 1706.8 301C1635.7 301 1564.3 301 1493.2 301C1422 301 1351 301 1280 301C1209 301 1138 301 1066.8 301C995.7 301 924.3 301 853.2 301C782 301 711 301 640 301C569 301 498 301 426.8 301C355.7 301 284.3 301 213.2 301C142 301 71 301 35.5 301L0 301Z" fill="#ff7575"></path><path d="M0 143L35.5 139C71 135 142 127 213.2 128C284.3 129 355.7 139 426.8 138.5C498 138 569 127 640 128.3C711 129.7 782 143.3 853.2 148.3C924.3 153.3 995.7 149.7 1066.8 145.8C1138 142 1209 138 1280 135.8C1351 133.7 1422 133.3 1493.2 131.8C1564.3 130.3 1635.7 127.7 1706.8 128.8C1778 130 1849 135 1884.5 137.5L1920 140L1920 301L1884.5 301C1849 301 1778 301 1706.8 301C1635.7 301 1564.3 301 1493.2 301C1422 301 1351 301 1280 301C1209 301 1138 301 1066.8 301C995.7 301 924.3 301 853.2 301C782 301 711 301 640 301C569 301 498 301 426.8 301C355.7 301 284.3 301 213.2 301C142 301 71 301 35.5 301L0 301Z" fill="#f16c6c"></path><path d="M0 174L35.5 171.5C71 169 142 164 213.2 165.7C284.3 167.3 355.7 175.7 426.8 175.2C498 174.7 569 165.3 640 160.5C711 155.7 782 155.3 853.2 157.7C924.3 160 995.7 165 1066.8 167.2C1138 169.3 1209 168.7 1280 167.5C1351 166.3 1422 164.7 1493.2 164.3C1564.3 164 1635.7 165 1706.8 169.5C1778 174 1849 182 1884.5 186L1920 190L1920 301L1884.5 301C1849 301 1778 301 1706.8 301C1635.7 301 1564.3 301 1493.2 301C1422 301 1351 301 1280 301C1209 301 1138 301 1066.8 301C995.7 301 924.3 301 853.2 301C782 301 711 301 640 301C569 301 498 301 426.8 301C355.7 301 284.3 301 213.2 301C142 301 71 301 35.5 301L0 301Z" fill="#e36363"></path><path d="M0 217L35.5 213.7C71 210.3 142 203.7 213.2 203.2C284.3 202.7 355.7 208.3 426.8 207.8C498 207.3 569 200.7 640 196.8C711 193 782 192 853.2 195.3C924.3 198.7 995.7 206.3 1066.8 205.3C1138 204.3 1209 194.7 1280 192C1351 189.3 1422 193.7 1493.2 199.7C1564.3 205.7 1635.7 213.3 1706.8 211.2C1778 209 1849 197 1884.5 191L1920 185L1920 301L1884.5 301C1849 301 1778 301 1706.8 301C1635.7 301 1564.3 301 1493.2 301C1422 301 1351 301 1280 301C1209 301 1138 301 1066.8 301C995.7 301 924.3 301 853.2 301C782 301 711 301 640 301C569 301 498 301 426.8 301C355.7 301 284.3 301 213.2 301C142 301 71 301 35.5 301L0 301Z" fill="#d55b5b"></path><path d="M0 248L35.5 245.5C71 243 142 238 213.2 235.2C284.3 232.3 355.7 231.7 426.8 228.3C498 225 569 219 640 221.3C711 223.7 782 234.3 853.2 240.7C924.3 247 995.7 249 1066.8 250.5C1138 252 1209 253 1280 250.2C1351 247.3 1422 240.7 1493.2 237.2C1564.3 233.7 1635.7 233.3 1706.8 231C1778 228.7 1849 224.3 1884.5 222.2L1920 220L1920 301L1884.5 301C1849 301 1778 301 1706.8 301C1635.7 301 1564.3 301 1493.2 301C1422 301 1351 301 1280 301C1209 301 1138 301 1066.8 301C995.7 301 924.3 301 853.2 301C782 301 711 301 640 301C569 301 498 301 426.8 301C355.7 301 284.3 301 213.2 301C142 301 71 301 35.5 301L0 301Z" fill="#c75252"></path><path d="M0 255L35.5 255.5C71 256 142 257 213.2 255.8C284.3 254.7 355.7 251.3 426.8 255.8C498 260.3 569 272.7 640 273.3C711 274 782 263 853.2 257.8C924.3 252.7 995.7 253.3 1066.8 253.5C1138 253.7 1209 253.3 1280 255.8C1351 258.3 1422 263.7 1493.2 265.7C1564.3 267.7 1635.7 266.3 1706.8 262.7C1778 259 1849 253 1884.5 250L1920 247L1920 301L1884.5 301C1849 301 1778 301 1706.8 301C1635.7 301 1564.3 301 1493.2 301C1422 301 1351 301 1280 301C1209 301 1138 301 1066.8 301C995.7 301 924.3 301 853.2 301C782 301 711 301 640 301C569 301 498 301 426.8 301C355.7 301 284.3 301 213.2 301C142 301 71 301 35.5 301L0 301Z" fill="#ba4a4a"></path></svg>