<svg id="visual" viewBox="0 0 1260 300" width="1260" height="300" xmlns="http://www.w3.org/2000/svg" xmlns:xlink="http://www.w3.org/1999/xlink" version="1.1"><rect x="0" y="0" width="1260" height="300" fill="#161615"></rect><path d="M0 86L19.2 93.3C38.3 100.7 76.7 115.3 114.8 115.5C153 115.7 191 101.3 229.2 104C267.3 106.7 305.7 126.3 343.8 136.8C382 147.3 420 148.7 458.2 151.5C496.3 154.3 534.7 158.7 572.8 150.8C611 143 649 123 687.2 113.3C725.3 103.7 763.7 104.3 801.8 103.8C840 103.3 878 101.7 916.2 106C954.3 110.3 992.7 120.7 1030.8 125.3C1069 130 1107 129 1145.2 120.7C1183.3 112.3 1221.7 96.7 1240.8 88.8L1260 81L1260 301L1240.8 301C1221.7 301 1183.3 301 1145.2 301C1107 301 1069 301 1030.8 301C992.7 301 954.3 301 916.2 301C878 301 840 301 801.8 301C763.7 301 725.3 301 687.2 301C649 301 611 301 572.8 301C534.7 301 496.3 301 458.2 301C420 301 382 301 343.8 301C305.7 301 267.3 301 229.2 301C191 301 153 301 114.8 301C76.7 301 38.3 301 19.2 301L0 301Z" fill="#ff7575"></path><path d="M0 180L19.2 171.7C38.3 163.3 76.7 146.7 114.8 144.2C153 141.7 191 153.3 229.2 151.5C267.3 149.7 305.7 134.3 343.8 131.8C382 129.3 420 139.7 458.2 147.8C496.3 156 534.7 162 572.8 156.2C611 150.3 649 132.7 687.2 130C725.3 127.3 763.7 139.7 801.8 152.5C840 165.3 878 178.7 916.2 172.7C954.3 166.7 992.7 141.3 1030.8 136.8C1069 132.3 1107 148.7 1145.2 157.7C1183.3 166.7 1221.7 168.3 1240.8 169.2L1260 170L1260 301L1240.8 301C1221.7 301 1183.3 301 1145.2 301C1107 301 1069 301 1030.8 301C992.7 301 954.3 301 916.2 301C878 301 840 301 801.8 301C763.7 301 725.3 301 687.2 301C649 301 611 301 572.8 301C534.7 301 496.3 301 458.2 301C420 301 382 301 343.8 301C305.7 301 267.3 301 229.2 301C191 301 153 301 114.8 301C76.7 301 38.3 301 19.2 301L0 301Z" fill="#ed6a6a"></path><path d="M0 191L19.2 186C38.3 181 76.7 171 114.8 173.7C153 176.3 191 191.7 229.2 192.8C267.3 194 305.7 181 343.8 176.8C382 172.7 420 177.3 458.2 181.8C496.3 186.3 534.7 190.7 572.8 194.8C611 199 649 203 687.2 205.5C725.3 208 763.7 209 801.8 203C840 197 878 184 916.2 175.3C954.3 166.7 992.7 162.3 1030.8 168C1069 173.7 1107 189.3 1145.2 193.3C1183.3 197.3 1221.7 189.7 1240.8 185.8L1260 182L1260 301L1240.8 301C1221.7 301 1183.3 301 1145.2 301C1107 301 1069 301 1030.8 301C992.7 301 954.3 301 916.2 301C878 301 840 301 801.8 301C763.7 301 725.3 301 687.2 301C649 301 611 301 572.8 301C534.7 301 496.3 301 458.2 301C420 301 382 301 343.8 301C305.7 301 267.3 301 229.2 301C191 301 153 301 114.8 301C76.7 301 38.3 301 19.2 301L0 301Z" fill="#dc5f5f"></path><path d="M0 230L19.2 232.3C38.3 234.7 76.7 239.3 114.8 236.2C153 233 191 222 229.2 218.7C267.3 215.3 305.7 219.7 343.8 219.5C382 219.3 420 214.7 458.2 216.7C496.3 218.7 534.7 227.3 572.8 231.8C611 236.3 649 236.7 687.2 230.7C725.3 224.7 763.7 212.3 801.8 209.2C840 206 878 212 916.2 215C954.3 218 992.7 218 1030.8 218.2C1069 218.3 1107 218.7 1145.2 214.8C1183.3 211 1221.7 203 1240.8 199L1260 195L1260 301L1240.8 301C1221.7 301 1183.3 301 1145.2 301C1107 301 1069 301 1030.8 301C992.7 301 954.3 301 916.2 301C878 301 840 301 801.8 301C763.7 301 725.3 301 687.2 301C649 301 611 301 572.8 301C534.7 301 496.3 301 458.2 301C420 301 382 301 343.8 301C305.7 301 267.3 301 229.2 301C191 301 153 301 114.8 301C76.7 301 38.3 301 19.2 301L0 301Z" fill="#cb5454"></path><path d="M0 251L19.2 248C38.3 245 76.7 239 114.8 240.5C153 242 191 251 229.2 251.3C267.3 251.7 305.7 243.3 343.8 244.7C382 246 420 257 458.2 262.2C496.3 267.3 534.7 266.7 572.8 263.5C611 260.3 649 254.7 687.2 253.7C725.3 252.7 763.7 256.3 801.8 257.7C840 259 878 258 916.2 257.7C954.3 257.3 992.7 257.7 1030.8 256.5C1069 255.3 1107 252.7 1145.2 251.3C1183.3 250 1221.7 250 1240.8 250L1260 250L1260 301L1240.8 301C1221.7 301 1183.3 301 1145.2 301C1107 301 1069 301 1030.8 301C992.7 301 954.3 301 916.2 301C878 301 840 301 801.8 301C763.7 301 725.3 301 687.2 301C649 301 611 301 572.8 301C534.7 301 496.3 301 458.2 301C420 301 382 301 343.8 301C305.7 301 267.3 301 229.2 301C191 301 153 301 114.8 301C76.7 301 38.3 301 19.2 301L0 301Z" fill="#ba4a4a"></path></svg>